PathFileType	4	(X/Y/Z)	./resultDataOpenSim/trcMotMarkerGrf/sub06/qtm-01-08.trc
DataRate	CameraRate	NumFrames	NumMarkers	Units	OrigDataRate	OrigDataStartFrame	OrigNumFrames
250.000000	250.000000	12	24	m	250.000000	237	473
Frame#	Time	L.Toe.Tip			R.Toe.Tip			L.Ankle.Lat			R.Ankle.Lat			L.Ankle.Med			R.Ankle.Med			L.Heel			R.Heel			L.Knee.Lat			R.Knee.Lat			L.Knee.Med			R.Knee.Med			L.Thigh.Upper			R.Thigh.Upper			L.ASIS			R.ASIS			V.Sacral			L.Acromium			R.Acromium			C7			L.Elbow			R.Elbow			L.Wrist.Lat			R.Wrist.Lat
		X1	Y1	Z1	X2	Y2	Z2	X3	Y3	Z3	X4	Y4	Z4	X5	Y5	Z5	X6	Y6	Z6	X7	Y7	Z7	X8	Y8	Z8	X9	Y9	Z9	X10	Y10	Z10	X11	Y11	Z11	X12	Y12	Z12	X13	Y13	Z13	X14	Y14	Z14	X15	Y15	Z15	X16	Y16	Z16	X17	Y17	Z17	X18	Y18	Z18	X19	Y19	Z19	X20	Y20	Z20	X21	Y21	Z21	X22	Y22	Z22	X23	Y23	Z23	X24	Y24	Z24

237	0.944	0.13197552	0.034139335	-0.015373302	0.59573408	0.088584822	0.15957397	0.011179492	0.080909191	-0.037525709	0.45748843	0.086619666	0.16243578	0.018114366	0.098273206	0.048788474	0.48576477	0.11796399	0.080470305	-0.06326595	0.06276903	0.012015293	0.42197515	0.057214482	0.091451438	0.13569205	0.43145368	-0.065079226	0.42718013	0.48179004	0.18126526	0.12405984	0.43626095	0.055996092	0.41468916	0.46263249	0.054300979	0.21184684	0.81210521	-0.13875047	0.23110887	0.8115144	0.21317984	0.29635688	0.85601608	-0.10128232	0.32218774	0.862409	0.14286897	0.12216291	0.93329504	0.044241992	0.24647402	1.3466778	-0.15066253	0.22721959	1.3293353	0.21039437	0.16252099	1.3724545	0.02503108	0.25961974	1.0250142	-0.21990465	0.089093866	1.0440388	0.25840439	0.48057148	0.90976694	-0.18071451	0.16654211	0.82195165	0.31613493
238	0.948	0.13197733	0.034100089	-0.015380645	0.6146474	0.092335824	0.15882086	0.011542058	0.081392116	-0.037596411	0.47620667	0.086172188	0.16287825	0.018562906	0.098733097	0.048735946	0.50330507	0.11807531	0.080759093	-0.063054696	0.063775175	0.011855731	0.44136058	0.05526998	0.092249549	0.13867128	0.4309907	-0.065231049	0.43358155	0.47959647	0.18057923	0.12734698	0.43566291	0.05590531	0.42107604	0.45987556	0.053538642	0.21666465	0.81102721	-0.13841291	0.2405164	0.80958839	0.21288586	0.30229713	0.85480711	-0.10161168	0.32944881	0.86094613	0.14251953	0.12952088	0.93118365	0.046246688	0.25284647	1.3452726	-0.15049292	0.23352989	1.3277703	0.21068327	0.16901791	1.3711887	0.025242939	0.26759343	1.0235928	-0.22004301	0.094985675	1.0427516	0.25802328	0.48947027	0.9105853	-0.17934907	0.17066446	0.82043947	0.31642483
239	0.952	0.13197487	0.034060761	-0.015387258	0.63304952	0.096419331	0.15800222	0.011942267	0.081853056	-0.037623268	0.49464972	0.086065255	0.16336747	0.019018568	0.099191408	0.048668925	0.52037083	0.11849874	0.081032256	-0.062847074	0.064804056	0.011680038	0.46039282	0.053673803	0.093219942	0.14174817	0.43050258	-0.065387983	0.43995853	0.47734206	0.17980967	0.13073078	0.43500404	0.055833325	0.42742016	0.45702597	0.052670295	0.22151736	0.80996326	-0.13799748	0.25002191	0.80758894	0.21253859	0.30811542	0.85351518	-0.10214834	0.33675961	0.85947298	0.14214998	0.13762183	0.92910804	0.047251544	0.25923556	1.3438246	-0.15031046	0.23985185	1.3261776	0.2109841	0.1755229	1.3698871	0.025471361	0.27542489	1.0219936	-0.22014653	0.10097089	1.0414128	0.25769694	0.49830478	0.91133949	-0.17801662	0.17485488	0.81888133	0.31672923
240	0.956	0.13196665	0.03402672	-0.015398801	0.65084187	0.10078879	0.15716566	0.012407422	0.0822919	-0.037623336	0.51276762	0.086249581	0.16390089	0.019486569	0.099666401	0.048590009	0.53692865	0.11921856	0.081309489	-0.062640165	0.065861151	0.011492534	0.47898187	0.05247293	0.094313292	0.14492334	0.42998751	-0.065533069	0.44633802	0.47504753	0.17895985	0.13420698	0.43430711	0.055771905	0.43375463	0.4541085	0.051675161	0.22642195	0.80888269	-0.13756514	0.25957182	0.80553383	0.21214728	0.31383274	0.85218507	-0.10271453	0.34413653	0.8579892	0.14177059	0.1461305	0.9272066	0.047466389	0.26564749	1.3423403	-0.15010931	0.24617586	1.3245599	0.21129195	0.18204379	1.368554	0.025719207	0.28309109	1.0201862	-0.22022644	0.10703036	1.0400337	0.25742465	0.50707385	0.91202455	-0.17671268	0.17912017	0.81727957	0.31705478
241	0.96	0.13195405	0.034000102	-0.015416055	0.66798449	0.10537019	0.15634184	0.012952938	0.082731734	-0.037659816	0.53050378	0.086683448	0.16445973	0.019972682	0.10016774	0.048493673	0.55295461	0.12020497	0.081610097	-0.062412619	0.066957011	0.011297969	0.49703456	0.051682015	0.095504988	0.14819662	0.42944295	-0.065666524	0.45273852	0.47273934	0.17806749	0.13778523	0.43360182	0.055704314	0.44010708	0.45115329	0.050547506	0.23139599	0.80773311	-0.13718265	0.26911304	0.80344077	0.21172112	0.31945101	0.85087615	-0.1031175	0.35158863	0.85649996	0.14138854	0.15426806	0.92555274	0.047553979	0.27208317	1.3408298	-0.14988553	0.25250697	1.3229194	0.21160874	0.18858012	1.3671928	0.025993418	0.29056672	1.0181683	-0.22027516	0.11313399	1.0386338	0.25724816	0.51577945	0.91263998	-0.1754229	0.18348841	0.81564943	0.31740863
242	0.964	0.13193977	0.033975985	-0.015432542	0.68447817	0.11007777	0.15553642	0.013560276	0.083203867	-0.037777746	0.54777807	0.087378183	0.16502795	0.020498592	0.10068998	0.048368062	0.56841206	0.12139668	0.081933638	-0.062131727	0.068088599	0.011106868	0.51446584	0.051243012	0.096822493	0.15156538	0.42887393	-0.06580254	0.45915736	0.4704433	0.17719641	0.14149387	0.4329126	0.055614108	0.44648748	0.44820103	0.049302574	0.23644642	0.80646926	-0.13690183	0.27859254	0.80132716	0.21126921	0.32498547	0.84960973	-0.10331186	0.35911329	0.85501858	0.14100737	0.16148333	0.92414437	0.048055826	0.27853575	1.3393038	-0.14963846	0.25886735	1.3212597	0.21194727	0.19512124	1.3658066	0.026308797	0.29783009	1.0159972	-0.2202494	0.1192769	1.0372184	0.25718806	0.5244249	0.91318922	-0.1741371	0.18800054	0.81400756	0.31779539
243	0.968	0.1319257	0.033947088	-0.015440771	0.7003283	0.11483152	0.15472035	0.014185267	0.083731632	-0.037960163	0.56449078	0.088400686	0.16560712	0.021099697	0.10121936	0.048202061	0.58325907	0.12271245	0.082237253	-0.061770387	0.069233923	0.010930117	0.53120795	0.051053754	0.098279741	0.15502711	0.42828846	-0.065954233	0.46556941	0.46818234	0.17641409	0.14536813	0.43224953	0.055488356	0.45289153	0.44530956	0.04798266	0.24156915	0.80510032	-0.13672116	0.2879554	0.79921006	0.21080049	0.33053995	0.84835883	-0.10340443	0.36670323	0.85356216	0.1406293	0.16773253	0.92292904	0.049131876	0.28499861	1.3377702	-0.1493681	0.26527447	1.3195869	0.21231804	0.20165892	1.3643974	0.026677332	0.30487778	1.0137925	-0.22007606	0.125479	1.0357799	0.25721392	0.53301026	0.91367394	-0.17285953	0.19270407	0.81236834	0.3182218
244	0.972	0.13191298	0.033911297	-0.015439726	0.71552947	0.11955064	0.15383756	0.014781066	0.084336934	-0.038161606	0.58058214	0.089781607	0.16617605	0.021794653	0.10175664	0.047997059	0.5974721	0.12407376	0.082440343	-0.061327789	0.070390067	0.010759128	0.54722747	0.051019422	0.099799833	0.15858293	0.42769423	-0.066123276	0.4719506	0.46598835	0.17577231	0.1494206	0.4316098	0.055324892	0.45931416	0.44255531	0.046651642	0.24676649	0.80371874	-0.13655714	0.29714152	0.79710656	0.21032385	0.33623842	0.84708466	-0.1035232	0.37434161	0.85213602	0.14024773	0.17331149	0.92183635	0.050671778	0.29147085	1.336232	-0.14907407	0.27172304	1.3179067	0.21271569	0.20819822	1.3629676	0.027091061	0.31174168	1.0116847	-0.21969294	0.13175238	1.0343156	0.25728809	0.54152931	0.91409121	-0.1716049	0.19761753	0.81073558	0.31869115
245	0.976	0.13190286	0.033871301	-0.01543356	0.73006559	0.12413258	0.1528368	0.01532762	0.085034133	-0.038358133	0.59604527	0.091435063	0.16665622	0.022555587	0.10233046	0.047771856	0.61106605	0.12540442	0.082468467	-0.060838511	0.071606854	0.010558189	0.56253326	0.051080447	0.10121019	0.16223965	0.42709798	-0.066301607	0.47831492	0.46391362	0.17529146	0.15361051	0.43098555	0.055144806	0.46576242	0.44001532	0.045374041	0.25205315	0.80243643	-0.13630214	0.30608461	0.79503538	0.20984872	0.3421042	0.84577258	-0.10371232	0.38198432	0.85071667	0.13983617	0.1786234	0.92079465	0.052473344	0.29795498	1.33469	-0.14875633	0.2781986	1.3162227	0.21312522	0.2147584	1.361521	0.027514937	0.31849355	1.0097527	-0.21909075	0.13809413	1.0328262	0.25739226	0.54997515	0.91443978	-0.17038214	0.20269712	0.80909423	0.31919357
246	0.98	0.13189628	0.033829923	-0.015426876	0.74390329	0.12845721	0.15169788	0.015872998	0.085797231	-0.038562128	0.61083615	0.093189465	0.16695053	0.023332449	0.10297282	0.047544744	0.62408536	0.12662608	0.082296984	-0.060342358	0.072948663	0.010295657	0.57715445	0.051214877	0.10230294	0.16600867	0.42650128	-0.066477408	0.48473553	0.46202214	0.17494524	0.15785736	0.43036548	0.05498914	0.47225251	0.43773447	0.044195934	0.25744259	0.80128238	-0.13592136	0.31472244	0.79301936	0.2093861	0.34808143	0.84443356	-0.10394927	0.38956903	0.84926075	0.13935808	0.18407849	0.91973177	0.054325629	0.30445391	1.3331483	-0.14841585	0.28470128	1.3145374	0.21354063	0.22135887	1.3600704	0.027911663	0.32523157	1.0080081	-0.21831611	0.14449773	1.031311	0.25752192	0.5583484	0.91472532	-0.16918569	0.20787151	0.80742451	0.31971315
247	0.984	0.13189335	0.033790437	-0.015425573	0.75698833	0.13240806	0.15044585	0.016502938	0.086577771	-0.038798271	0.62480351	0.09487071	0.16699534	0.024102784	0.1036901	0.04731434	0.636568	0.12767947	0.081959123	-0.05984454	0.074435737	0.0099764988	0.591105	0.051421575	0.10290552	0.16989868	0.42590166	-0.066640914	0.49133675	0.46036803	0.17466407	0.1621233	0.42972473	0.054884725	0.47879211	0.43570773	0.043140276	0.2629378	0.80019943	-0.13546499	0.32302815	0.79108584	0.20894913	0.35412088	0.84308514	-0.10420605	0.39706898	0.84775016	0.13880324	0.19008992	0.91857171	0.056020879	0.31096804	1.3316178	-0.14805508	0.29124236	1.3128559	0.21397037	0.227993	1.3586416	0.028294393	0.33206138	1.0064233	-0.21744412	0.15096263	1.0297731	0.25767541	0.56665403	0.91495452	-0.1680063	0.21310722	0.80572664	0.32024331
248	0.988	0.13189442	0.033761131	-0.01544006	0.76927827	0.13587144	0.14915261	0.017244738	0.087369695	-0.03907297	0.63774602	0.096354164	0.16676215	0.02487938	0.1044732	0.04706791	0.64852187	0.12855811	0.081505518	-0.059320733	0.076049302	0.0096286586	0.6043733	0.051690627	0.10292595	0.17391122	0.42529827	-0.066791333	0.49825457	0.45897859	0.1743676	0.16648821	0.42902777	0.054803484	0.48537596	0.43389908	0.042217478	0.26853498	0.79911985	-0.13500465	0.33105291	0.78925773	0.20855024	0.36020082	0.8417357	-0.10446967	0.40453337	0.8462216	0.13821087	0.19705638	0.91724262	0.057378956	0.31749587	1.3301102	-0.14767571	0.29782536	1.3111879	0.21442455	0.23463039	1.357256	0.028725483	0.33908736	1.004962	-0.21655502	0.15749488	1.0282178	0.25785161	0.57489372	0.91512909	-0.16684069	0.21841896	0.80401993	0.32078675
